<svg xmlns="http://www.w3.org/2000/svg" viewBox="0 0 256 256" width="256" height="256">
  <title>The Wedding</title>

  <!-- Flower centered at 128,128 -->
  <g transform="translate(128,128)">
    <!-- 8 wider, elongated petals touching edges -->
    <path d="M 0,-2 C 26,-28 30,-88 0,-126 C -30,-88 -26,-28 0,-2 Z" fill="white"/>
    <path d="M 0,-2 C 26,-28 30,-88 0,-126 C -30,-88 -26,-28 0,-2 Z" fill="white" transform="rotate(45)"/>
    <path d="M 0,-2 C 26,-28 30,-88 0,-126 C -30,-88 -26,-28 0,-2 Z" fill="white" transform="rotate(90)"/>
    <path d="M 0,-2 C 26,-28 30,-88 0,-126 C -30,-88 -26,-28 0,-2 Z" fill="white" transform="rotate(135)"/>
    <path d="M 0,-2 C 26,-28 30,-88 0,-126 C -30,-88 -26,-28 0,-2 Z" fill="white" transform="rotate(180)"/>
    <path d="M 0,-2 C 26,-28 30,-88 0,-126 C -30,-88 -26,-28 0,-2 Z" fill="white" transform="rotate(225)"/>
    <path d="M 0,-2 C 26,-28 30,-88 0,-126 C -30,-88 -26,-28 0,-2 Z" fill="white" transform="rotate(270)"/>
    <path d="M 0,-2 C 26,-28 30,-88 0,-126 C -30,-88 -26,-28 0,-2 Z" fill="white" transform="rotate(315)"/>

    <!-- Separator lines between petals for visibility -->
    <line x1="0" y1="-18" x2="0" y2="-55" stroke="#3a3a3c" stroke-width="2" transform="rotate(22.5)"/>
    <line x1="0" y1="-18" x2="0" y2="-55" stroke="#3a3a3c" stroke-width="2" transform="rotate(67.5)"/>
    <line x1="0" y1="-18" x2="0" y2="-55" stroke="#3a3a3c" stroke-width="2" transform="rotate(112.5)"/>
    <line x1="0" y1="-18" x2="0" y2="-55" stroke="#3a3a3c" stroke-width="2" transform="rotate(157.5)"/>
    <line x1="0" y1="-18" x2="0" y2="-55" stroke="#3a3a3c" stroke-width="2" transform="rotate(202.5)"/>
    <line x1="0" y1="-18" x2="0" y2="-55" stroke="#3a3a3c" stroke-width="2" transform="rotate(247.5)"/>
    <line x1="0" y1="-18" x2="0" y2="-55" stroke="#3a3a3c" stroke-width="2" transform="rotate(292.5)"/>
    <line x1="0" y1="-18" x2="0" y2="-55" stroke="#3a3a3c" stroke-width="2" transform="rotate(337.5)"/>

    <!-- Yellow center - enlarged 1.5x (12 → 18) -->
    <circle cx="0" cy="0" r="18" fill="#d4a520"/>
  </g>
</svg>
